<svg xmlns="http://www.w3.org/2000/svg" fill="none" viewBox="0 0 128 128">
    <path d="m50.4 78.5-3.2-2.2v-3.2c0-.8-.4-1.5-1-2.1l-2.7-2.7c-.7-.7-1.6-1-2.4-1H31c-.8 0-1.5.4-2 .9L17.3 80.2c-.4.5-.7 1.1-.7 1.8v14.5c0 .7.3 1.4.7 1.8L29.0 110.1c.5.5 1.2.9 2 .9H41.1c.8 0 1.7-.3 2.4-1L46.2 107.3c.6-.6 1-1.3 1-2.1V104.2l3.2-2.2c.8-.5 1.2-1.4 1.2-2.3v-17c0-.9-.4-1.8-1.2-2.2z" fill="#667eea"/>
    <path d="m79.8 55.7-3.2-2.2v-3.2c0-.8-.4-1.5-1-2.1l-2.7-2.7c-.7-.7-1.6-1-2.4-1H60.4c-.8 0-1.5.4-2 .9L46.7 57.4c-.4.5-.7 1.1-.7 1.8v14.5c0 .7.3 1.4.7 1.8L58.4 87.3c.5.5 1.2.9 2 .9H70.5c.8 0 1.7-.3 2.4-1L75.6 84.5c.6-.6 1-1.3 1-2.1v-1l3.2-2.2c.8-.5 1.2-1.4 1.2-2.3V60c0-.9-.4-1.8-1.2-2.3z" fill="#764ba2"/>
</svg>